<?xml version="1.0" encoding="utf-8"?>
<svg xmlns="http://www.w3.org/2000/svg" width="64" height="64" viewBox="0 0 16.933 16.933">
  <defs>
    <linearGradient gradientUnits="userSpaceOnUse" x1="9.947" y1="0.855" x2="9.947" y2="6.678" id="gradient-1">
      <stop offset="0" style="stop-color: #cba6f7"/>
      <stop offset="1" style="stop-color: #9399b2"/>
    </linearGradient>
    <linearGradient gradientUnits="userSpaceOnUse" x1="5.83" y1="6.693" x2="5.83" y2="11.453" id="gradient-4">
      <stop offset="0" style="stop-color: #cba6f7"/>
      <stop offset="1" style="stop-color: #7f849c"/>
    </linearGradient>
    <linearGradient gradientUnits="userSpaceOnUse" x1="5.207" y1="3.697" x2="5.207" y2="5.445" id="gradient-3">
      <stop offset="0" style="stop-color: #f5c2e7"/>
      <stop offset="1" style="stop-color: #cba6f7"/>
    </linearGradient>
    <linearGradient gradientUnits="userSpaceOnUse" x1="12.139" y1="0.861" x2="12.139" y2="10.531" id="gradient-5" gradientTransform="matrix(1, 0, 0, 1, -0.02997, 0.02997)">
      <stop offset="0" style="stop-color: #f5c2e7"/>
      <stop offset="1" style="stop-color: #cba6f7"/>
    </linearGradient>
    <linearGradient gradientUnits="userSpaceOnUse" x1="8.019" y1="3.259" x2="8.019" y2="14.504" id="gradient-0">
      <stop offset="0" style="stop-color: rgb(29.804% 30.98% 41.176%)"/>
      <stop offset="1" style="stop-color: rgb(17.541% 18.907% 28.328%)"/>
    </linearGradient>
  </defs>
  <circle cx="8.466" cy="8.466" r="7.144" fill="#45475a" style="paint-order:stroke fill markers"/>
  <g stroke-width=".185">
    <path d="M 14.973 5.719 C 14.663 4.971 14.032 4.164 13.538 3.909 C 13.89 4.591 14.134 5.323 14.262 6.079 L 14.264 6.092 C 13.455 4.076 12.084 3.262 10.964 1.492 C 10.906 1.402 10.85 1.311 10.795 1.219 C 10.767 1.171 10.74 1.121 10.716 1.071 C 10.67 0.981 10.634 0.886 10.61 0.788 C 10.61 0.783 10.609 0.779 10.605 0.775 C 10.602 0.772 10.598 0.769 10.593 0.769 C 10.589 0.768 10.584 0.768 10.58 0.769 L 10.576 0.771 L 10.571 0.774 L 10.574 0.768 C 8.778 1.82 8.168 3.768 8.112 4.742 C 7.394 4.791 6.708 5.055 6.143 5.5 C 6.084 5.45 6.023 5.403 5.959 5.36 C 5.796 4.79 5.789 4.186 5.939 3.612 C 5.279 3.932 4.693 4.384 4.217 4.942 L 4.214 4.942 C 3.93 4.584 3.95 3.399 3.966 3.152 C 3.882 3.186 3.803 3.229 3.728 3.279 C 3.477 3.458 3.243 3.658 3.028 3.878 C 2.783 4.126 2.56 4.395 2.36 4.68 C 1.9 5.332 1.574 6.069 1.4 6.847 L 1.39 6.894 C 1.377 6.957 1.329 7.272 1.32 7.341 L 1.319 7.357 C 1.256 7.683 1.218 8.012 1.203 8.343 L 1.203 8.379 C 1.212 12.088 4.053 15.175 7.749 15.49 C 11.444 15.804 14.767 13.243 15.403 9.589 C 15.416 9.497 15.425 9.405 15.436 9.312 C 15.583 8.095 15.424 6.859 14.972 5.719 L 14.973 5.719 Z M 6.729 11.318 C 6.763 11.334 6.794 11.351 6.829 11.367 L 6.833 11.37 L 6.729 11.318 Z M 14.264 6.094 L 14.264 6.086 L 14.266 6.094 L 14.264 6.094 Z" style="fill: rgb(69, 71, 90);"/>
    <path d="m11.618 6.646.044.032a3.894 3.894 0 0 0-.664-.866C8.775 3.589 10.415.99 10.692.859l.003-.004C8.898 1.906 8.289 3.854 8.233 4.828c.083-.006.166-.013.251-.013a3.61 3.61 0 0 1 3.134 1.83z" style="fill: url(#gradient-1);"/>
    <path d="M8.488 7.09c-.012.178-.64.792-.86.792-2.034 0-2.364 1.23-2.364 1.23.09 1.036.812 1.89 1.685 2.34.04.021.08.04.12.058q.105.047.21.086a3.18 3.18 0 0 0 .93.18c3.566.167 4.256-4.263 1.684-5.549a2.47 2.47 0 0 1 1.724.42 3.61 3.61 0 0 0-3.134-1.831c-.084 0-.168.007-.25.013a3.578 3.578 0 0 0-1.97.758c.11.093.233.216.492.472.485.478 1.73.973 1.733 1.031z" style="fill: rgb(250, 179, 135);"/>
    <path d="M5.93 5.347c.058.037.106.07.148.098a3.316 3.316 0 0 1-.02-1.748 5.298 5.298 0 0 0-1.722 1.33c.035 0 1.073-.02 1.594.32z" style="fill: url(#gradient-3);"/>
    <path d="M 1.357 8.654 C 1.909 11.915 4.865 14.406 8.221 14.501 C 11.327 14.589 13.311 12.786 14.131 11.027 C 14.825 9.507 14.905 7.777 14.354 6.199 L 14.354 6.185 L 14.355 6.197 C 14.609 7.854 13.766 9.459 12.449 10.544 L 12.445 10.554 C 9.878 12.644 7.422 11.814 6.925 11.476 L 6.821 11.424 C 5.324 10.709 4.706 9.346 4.838 8.176 C 4.112 8.187 3.449 7.769 3.144 7.111 C 3.943 6.621 4.938 6.581 5.774 7.005 C 6.621 7.389 7.584 7.428 8.459 7.111 C 8.456 7.052 7.212 6.557 6.726 6.079 C 6.467 5.823 6.344 5.7 6.235 5.608 C 6.176 5.558 6.114 5.511 6.05 5.468 L 5.903 5.37 C 5.381 5.03 4.343 5.05 4.309 5.05 L 4.306 5.05 C 4.022 4.691 4.042 3.506 4.058 3.259 C 3.974 3.293 3.894 3.335 3.82 3.386 C 3.569 3.565 3.335 3.765 3.12 3.985 C 2.875 4.232 2.65 4.5 2.45 4.785 C 1.99 5.437 1.664 6.173 1.49 6.952 C 1.486 6.967 1.232 8.078 1.357 8.654 Z" style="fill: url(&quot;#gradient-0&quot;);"/>
    <path d="M 10.968 5.848 C 11.229 6.104 11.452 6.396 11.632 6.715 C 11.672 6.745 11.708 6.775 11.74 6.803 C 13.361 8.298 12.512 10.411 12.448 10.561 C 13.766 9.476 14.608 7.871 14.354 6.214 C 13.545 4.197 12.174 3.384 11.054 1.614 C 10.996 1.524 10.939 1.432 10.885 1.34 C 10.857 1.292 10.831 1.242 10.807 1.192 C 10.76 1.102 10.724 1.008 10.7 0.91 C 10.7 0.901 10.693 0.893 10.684 0.892 C 10.679 0.891 10.674 0.891 10.67 0.892 L 10.667 0.893 L 10.662 0.896 C 10.385 1.027 8.745 3.625 10.968 5.848 Z" style="fill-opacity: 0.96; fill: url(#gradient-5);"/>
    <path d="M11.768 6.768a1.499 1.499 0 0 0-.107-.088l-.045-.033a2.47 2.47 0 0 0-1.724-.419c2.572 1.287 1.882 5.716-1.683 5.549a3.18 3.18 0 0 1-.93-.18q-.106-.039-.21-.086c-.041-.018-.082-.036-.122-.057l.005.003c.498.34 2.953 1.169 5.52-.922l.005-.01c.064-.15.913-2.263-.709-3.757z" style="fill: rgb(243, 139, 168);"/>
    <path d="M5.264 9.112s.33-1.23 2.364-1.23c.22 0 .849-.614.86-.792a3.562 3.562 0 0 1-2.685-.105 2.698 2.698 0 0 0-2.63.105 1.837 1.837 0 0 0 1.694 1.066c-.132 1.17.486 2.533 1.983 3.248.033.016.064.033.099.049-.874-.451-1.595-1.305-1.685-2.34z" style="fill-opacity: 0.88; fill: url(#gradient-4);"/>
  </g>
</svg>